<svg width="164" height="32" viewBox="0 0 164 32" fill="none" xmlns="http://www.w3.org/2000/svg">
<path d="M0 4C0 1.79086 1.79086 0 4 0H160C162.209 0 164 1.79086 164 4V28C164 30.2091 162.209 32 160 32H4C1.79086 32 0 30.2091 0 28V4Z" fill="white"/>
<path d="M14.034 11.606H21.02V10.668H14.552C14.706 10.36 14.86 10.024 15 9.674L13.992 9.464C13.39 10.948 12.62 12.138 11.668 13.048L12.312 13.818C12.634 13.496 12.942 13.146 13.236 12.768C13.208 13.86 13.138 14.952 13.026 16.03H11.528V16.968H12.928C12.788 18.088 12.592 19.208 12.368 20.328H19.032C19.004 20.552 18.976 20.706 18.948 20.776C18.808 21.098 18.584 21.308 18.276 21.406C17.968 21.476 17.632 21.518 17.254 21.518C16.834 21.518 16.372 21.49 15.868 21.462L16.162 22.386C16.624 22.386 17.03 22.372 17.38 22.372C18.136 22.372 18.696 22.274 19.088 22.078C19.48 21.854 19.746 21.518 19.886 21.07C19.914 20.958 19.956 20.72 19.998 20.328H21.216V19.46H20.068C20.11 18.816 20.152 17.99 20.208 16.968H21.44V16.03H20.25C20.278 15.078 20.32 13.986 20.362 12.754H13.25C13.53 12.39 13.782 12.012 14.034 11.606ZM13.88 16.968H19.256C19.2 18.004 19.158 18.83 19.116 19.46H13.488C13.642 18.704 13.768 17.864 13.88 16.968ZM19.298 16.03H13.978C14.048 15.288 14.104 14.49 14.146 13.65H19.382C19.354 14.504 19.326 15.302 19.298 16.03ZM16.022 13.888L15.392 14.504C16.134 14.994 16.722 15.456 17.142 15.904L17.786 15.26C17.31 14.798 16.722 14.336 16.022 13.888ZM15.896 17.136L15.266 17.752C15.994 18.298 16.568 18.816 16.988 19.292L17.646 18.648C17.17 18.144 16.596 17.64 15.896 17.136ZM9.624 9.8L8.896 10.486C9.82 11.102 10.534 11.69 11.052 12.25L11.766 11.522C11.178 10.934 10.464 10.36 9.624 9.8ZM9.4 13.202L8.672 13.902C9.596 14.546 10.31 15.134 10.828 15.694L11.542 14.98C10.954 14.392 10.24 13.79 9.4 13.202ZM10.842 17.304C10.254 18.844 9.568 20.342 8.784 21.812L9.722 22.218C10.45 20.79 11.122 19.264 11.71 17.64L10.842 17.304ZM30.428 9.492C30.4 9.842 30.358 10.192 30.316 10.556H26.914V11.438H30.19C30.134 11.788 30.078 12.138 30.008 12.488H27.25V15.848H34.6V12.488H30.96C31.03 12.152 31.1 11.802 31.17 11.438H34.936V10.556H31.296C31.324 10.262 31.366 9.954 31.394 9.632L30.428 9.492ZM26.942 16.8V17.724H34.894V16.8H26.942ZM33.718 15.008H32.374V13.342H33.718V15.008ZM31.576 15.008H30.274V13.342H31.576V15.008ZM29.476 15.008H28.132V13.342H29.476V15.008ZM25.486 9.492C24.898 10.836 23.932 12.04 22.616 13.076L22.91 14.056C24.506 12.852 25.668 11.466 26.382 9.912L25.486 9.492ZM25.808 13.076C25.164 14.476 24.114 15.736 22.686 16.828L22.98 17.78C23.526 17.374 24.03 16.954 24.492 16.506V22.4H25.472V15.428C25.948 14.812 26.354 14.168 26.676 13.482L25.808 13.076ZM34.208 18.298L33.368 18.578C33.844 19.432 34.292 20.426 34.684 21.56L35.51 21.182C35.146 20.16 34.712 19.194 34.208 18.298ZM27.054 18.62C26.83 19.642 26.48 20.58 26.004 21.434L26.83 21.952C27.32 21.056 27.698 20.006 27.95 18.802L27.054 18.62ZM32.192 22.288C32.626 22.288 32.948 22.204 33.144 22.036C33.368 21.826 33.522 21.252 33.606 20.328L32.724 20.034C32.682 20.692 32.598 21.098 32.486 21.238C32.402 21.336 32.248 21.392 32.024 21.392H30.162C29.798 21.392 29.63 21.21 29.63 20.874V18.536H28.692V21.084C28.692 21.882 29.084 22.288 29.868 22.288H32.192ZM31.142 18.088L30.414 18.55C30.974 19.18 31.422 19.768 31.758 20.3L32.5 19.768C32.178 19.292 31.73 18.732 31.142 18.088ZM37.722 10.626V11.606H48.306V10.626H37.722ZM38.66 15.47V16.45H47.354V15.47H38.66ZM36.686 20.65V21.658H49.314V20.65H36.686ZM52.898 10.066V13.846H61.102V10.066H52.898ZM60.066 12.936H53.934V10.976H60.066V12.936ZM53.906 16.016L53.248 18.564H60.276C60.192 19.824 60.066 20.608 59.898 20.916C59.716 21.224 59.254 21.378 58.498 21.378C57.924 21.378 57.266 21.35 56.524 21.294L56.86 22.218C57.406 22.274 58.022 22.302 58.722 22.302C59.674 22.302 60.318 22.092 60.654 21.672C60.99 21.238 61.214 19.894 61.298 17.654H54.452L54.928 16.016H63.286V15.05H50.7V16.016H53.906ZM76.922 12.264L73.912 13.188V9.562H72.932V13.496L70.888 14.126V10.99H69.908V14.434L68.732 14.798V15.778L69.908 15.414V20.748C69.908 21.672 70.37 22.148 71.308 22.148H75.732C76.25 22.148 76.628 22.008 76.866 21.742C77.146 21.434 77.328 20.58 77.426 19.166L76.488 18.872C76.432 20.006 76.32 20.692 76.166 20.916C76.054 21.098 75.844 21.196 75.55 21.196H71.616C71.126 21.196 70.888 20.972 70.888 20.552V15.12L72.932 14.504V19.502H73.912V14.21L75.956 13.594C75.942 15.498 75.9 16.604 75.83 16.898C75.746 17.206 75.508 17.36 75.13 17.36C74.962 17.36 74.766 17.346 74.556 17.332L74.836 18.326H74.92C75.97 18.326 76.572 18.018 76.712 17.43C76.852 16.814 76.922 15.092 76.922 12.264ZM68.914 18.214C68.382 18.466 67.822 18.704 67.262 18.914V14.266H68.718V13.286H67.262V9.674H66.268V13.286H64.672V14.266H66.268V19.25C65.68 19.418 65.092 19.572 64.504 19.698L64.756 20.706C66.24 20.314 67.626 19.81 68.914 19.208V18.214ZM78.77 10.304V11.298H84.118V22.428H85.14V14.476C86.4 15.148 87.968 16.1 89.83 17.332L90.432 16.436C88.64 15.288 86.876 14.28 85.14 13.412V11.298H91.216V10.304H78.77ZM101.002 10.808C99.9941 10.808 99.1681 11.144 98.5521 11.816C97.9361 12.474 97.6141 13.37 97.6141 14.49H98.7621C98.7761 13.608 98.9861 12.936 99.3781 12.488C99.7421 12.012 100.274 11.788 100.96 11.788C101.604 11.788 102.122 11.956 102.486 12.292C102.85 12.628 103.032 13.09 103.032 13.706C103.032 14.35 102.766 14.952 102.262 15.498C101.996 15.778 101.478 16.184 100.694 16.744C99.6301 17.472 98.9161 18.074 98.5241 18.522C97.8521 19.264 97.5301 20.09 97.5301 21H104.194V19.978H98.9441C99.1261 19.306 99.8541 18.536 101.128 17.682C102.164 16.982 102.85 16.436 103.2 16.072C103.844 15.372 104.18 14.588 104.18 13.72C104.18 12.852 103.872 12.138 103.284 11.606C102.682 11.074 101.926 10.808 101.002 10.808ZM114.255 14.924V15.82H121.857V14.924H114.255ZM113.275 17.206V18.13H116.327C115.347 19.712 114.535 20.678 113.919 21.042C113.863 21.07 113.793 21.112 113.709 21.14L113.933 21.994C116.565 21.826 119.001 21.588 121.227 21.28C121.507 21.644 121.759 22.008 121.983 22.372L122.795 21.798C122.179 20.902 121.283 19.838 120.135 18.62L119.393 19.082C119.813 19.558 120.219 20.02 120.597 20.482C118.805 20.748 116.985 20.944 115.151 21.084C115.795 20.482 116.537 19.502 117.405 18.13H122.767V17.206H113.275ZM121.059 11.06V12.684H112.841V11.06H121.059ZM112.841 13.594H122.039V10.122H111.847V14.756C111.833 17.57 111.343 19.866 110.377 21.644L111.105 22.302C112.253 20.202 112.827 17.682 112.841 14.756V13.594ZM132.315 11.004L128.381 21H129.613L130.677 18.2H135.269L136.333 21H137.579L133.645 11.004H132.315ZM131.041 17.234L132.959 12.236H133.015L134.905 17.234H131.041ZM139.906 19.334C139.668 19.334 139.472 19.404 139.318 19.572C139.15 19.726 139.066 19.922 139.066 20.16C139.066 20.398 139.15 20.594 139.318 20.762C139.472 20.916 139.668 21 139.906 21C140.144 21 140.354 20.916 140.522 20.762C140.676 20.608 140.76 20.412 140.76 20.16C140.76 19.922 140.676 19.726 140.522 19.572C140.354 19.404 140.158 19.334 139.906 19.334ZM144.582 19.334C144.344 19.334 144.148 19.404 143.98 19.572C143.812 19.726 143.742 19.922 143.742 20.16C143.742 20.398 143.812 20.594 143.98 20.762C144.148 20.916 144.344 21 144.582 21C144.82 21 145.03 20.916 145.198 20.762C145.352 20.608 145.436 20.412 145.436 20.16C145.436 19.922 145.352 19.726 145.198 19.572C145.03 19.404 144.82 19.334 144.582 19.334ZM149.244 19.334C149.006 19.334 148.81 19.404 148.642 19.572C148.474 19.726 148.404 19.922 148.404 20.16C148.404 20.398 148.474 20.594 148.642 20.762C148.81 20.916 149.006 21 149.244 21C149.482 21 149.678 20.916 149.846 20.762C150.014 20.608 150.098 20.412 150.098 20.16C150.098 19.922 150.014 19.726 149.846 19.572C149.678 19.404 149.482 19.334 149.244 19.334Z" fill="#2E2E2E"/>
<path d="M4 1H160V-1H4V1ZM163 4V28H165V4H163ZM160 31H4V33H160V31ZM1 28V4H-1V28H1ZM4 31C2.34314 31 1 29.6569 1 28H-1C-1 30.7614 1.23857 33 4 33V31ZM163 28C163 29.6569 161.657 31 160 31V33C162.761 33 165 30.7614 165 28H163ZM160 1C161.657 1 163 2.34314 163 4H165C165 1.23858 162.761 -1 160 -1V1ZM4 -1C1.23858 -1 -1 1.23858 -1 4H1C1 2.34315 2.34315 1 4 1V-1Z" fill="#DCDFE5"/>
</svg>
