<svg width="32" height="32" viewBox="0 0 32 32" fill="none" xmlns="http://www.w3.org/2000/svg">
<g clip-path="url(#clip0_313_19950)">
<mask id="path-1-inside-1_313_19950" fill="white">
<path d="M27 15.5C27 21.9413 19.2351 29.2846 16.7531 31.4674C16.3183 31.8497 15.6815 31.8497 15.2468 31.4674C12.7647 29.2846 4.99988 21.9413 4.99988 15.5C4.99988 9.14872 9.92476 4 15.9999 4C22.0751 4 27 9.14872 27 15.5Z"/>
</mask>
<path d="M27 15.5C27 21.9413 19.2351 29.2846 16.7531 31.4674C16.3183 31.8497 15.6815 31.8497 15.2468 31.4674C12.7647 29.2846 4.99988 21.9413 4.99988 15.5C4.99988 9.14872 9.92476 4 15.9999 4C22.0751 4 27 9.14872 27 15.5Z" fill="#E05248"/>
<path d="M16.7531 31.4674L16.0927 30.7165L16.7531 31.4674ZM15.2468 31.4674L15.9072 30.7165L15.2468 31.4674ZM26 15.5C26 18.3686 24.2433 21.5867 22.016 24.4692C19.8201 27.3111 17.3116 29.6445 16.0927 30.7165L17.4134 32.2183C18.6766 31.1075 21.2915 28.6779 23.5986 25.6921C25.8742 22.7469 28 19.0727 28 15.5H26ZM15.9072 30.7165C14.6883 29.6445 12.1797 27.3111 9.98387 24.4692C7.75658 21.5867 5.99988 18.3686 5.99988 15.5H3.99988C3.99988 19.0727 6.1256 22.7469 8.40126 25.6921C10.7084 28.6779 13.3232 31.1075 14.5864 32.2183L15.9072 30.7165ZM5.99988 15.5C5.99988 9.65865 10.5185 5 15.9999 5V3C9.33106 3 3.99988 8.63879 3.99988 15.5H5.99988ZM15.9999 5C21.4814 5 26 9.65865 26 15.5H28C28 8.63879 22.6688 3 15.9999 3V5ZM16.0927 30.7165C16.0604 30.7449 16.0281 30.7541 15.9999 30.7541C15.9717 30.7541 15.9395 30.7449 15.9072 30.7165L14.5864 32.2183C15.3988 32.9327 16.6011 32.9327 17.4134 32.2183L16.0927 30.7165Z" fill="#E87168" mask="url(#path-1-inside-1_313_19950)"/>
<circle cx="16" cy="15" r="5.5" fill="white" stroke="#E87168"/>
</g>
<defs>
<clipPath id="clip0_313_19950">
<rect width="32" height="32" fill="white"/>
</clipPath>
</defs>
</svg>
