<svg width="32" height="32" viewBox="0 0 32 32" fill="none" xmlns="http://www.w3.org/2000/svg">
<mask id="path-1-inside-1_313_19935" fill="white">
<path d="M25 18.4091C25 23.6793 18.6469 29.6875 16.6161 31.4733C16.2604 31.7861 15.7394 31.7861 15.3837 31.4733C13.353 29.6874 6.99988 23.6793 6.99988 18.4091C6.99988 13.2126 11.0293 9 15.9999 9C20.9705 9 25 13.2126 25 18.4091Z"/>
</mask>
<path d="M25 18.4091C25 23.6793 18.6469 29.6875 16.6161 31.4733C16.2604 31.7861 15.7394 31.7861 15.3837 31.4733C13.353 29.6874 6.99988 23.6793 6.99988 18.4091C6.99988 13.2126 11.0293 9 15.9999 9C20.9705 9 25 13.2126 25 18.4091Z" fill="#8F7EF2"/>
<path d="M16.6161 31.4733L15.9557 30.7224L16.6161 31.4733ZM15.3837 31.4733L14.7233 32.2243L15.3837 31.4733ZM24 18.4091C24 20.6921 22.5962 23.2837 20.7783 25.6364C18.9918 27.9484 16.949 29.8489 15.9557 30.7224L17.2765 32.2243C18.314 31.3119 20.4631 29.3153 22.3609 26.8593C24.2272 24.4439 26 21.3963 26 18.4091H24ZM16.0441 30.7224C15.0509 29.8489 13.008 27.9484 11.2216 25.6364C9.40364 23.2837 7.99988 20.6921 7.99988 18.4091H5.99987C5.99987 21.3963 7.77265 24.4439 9.63896 26.8593C11.5367 29.3153 13.6858 31.3119 14.7233 32.2243L16.0441 30.7224ZM7.99988 18.4091C7.99988 13.7225 11.623 10 15.9999 10V8C10.4356 8 5.99987 12.7027 5.99987 18.4091H7.99988ZM15.9999 10C20.3768 10 24 13.7225 24 18.4091H26C26 12.7027 21.5642 8 15.9999 8V10ZM15.9557 30.7224C15.963 30.716 15.9794 30.7079 15.9999 30.7079C16.0204 30.7079 16.0369 30.716 16.0441 30.7224L14.7233 32.2243C15.4567 32.8692 16.5432 32.8692 17.2765 32.2243L15.9557 30.7224Z" fill="#A495F5" mask="url(#path-1-inside-1_313_19935)"/>
<circle cx="16" cy="18" r="4.5" fill="white" stroke="#A495F5"/>
</svg>
